<mxfile host="app.diagrams.net" modified="2024-01-22T20:48:44.521Z" agent="Mozilla/5.0 (Windows NT 10.0; Win64; x64) AppleWebKit/537.36 (KHTML, like Gecko) Chrome/120.0.0.0 Safari/537.36 Edg/120.0.0.0" version="22.1.18" etag="HcyiKzm_6d8CVBSUXCQ-" type="github">
  <diagram name="Page-1" id="MAfnlJDMhUcYNWR0TiM_">
    <mxGraphModel>
      <root>
        <mxCell id="0" />
        <mxCell id="1" parent="0" />
      </root>
    </mxGraphModel>
  </diagram>
</mxfile>
